<?xml version="1.0" encoding="UTF-8" standalone="no"?>
<!DOCTYPE svg PUBLIC "-//W3C//DTD SVG 1.1//EN"
 "http://www.w3.org/Graphics/SVG/1.1/DTD/svg11.dtd">
<!-- Generated by graphviz version 2.47.3 (20210619.1520)
 -->
<!-- Title: dependencies Pages: 1 -->
<svg width="612pt" height="174pt"
 viewBox="0.00 0.00 612.00 173.80" xmlns="http://www.w3.org/2000/svg" xmlns:xlink="http://www.w3.org/1999/xlink">
<g id="graph0" class="graph" transform="scale(1 1) rotate(0) translate(4 169.8)">
<title>dependencies</title>
<polygon fill="white" stroke="transparent" points="-4,4 -4,-169.8 608,-169.8 608,4 -4,4"/>
<text text-anchor="middle" x="302" y="-8.2" font-family="sans-serif" font-size="14.00">dependencies</text>
<g id="clust1" class="cluster">
<title>cluster_StudentPageModule</title>
<polygon fill="none" stroke="black" stroke-dasharray="1,5" points="8,-32.8 8,-157.8 596,-157.8 596,-32.8 8,-32.8"/>
</g>
<g id="clust2" class="cluster">
<title>cluster_StudentPageModule_declarations</title>
<polygon fill="none" stroke="black" points="214,-40.8 214,-92.8 588,-92.8 588,-40.8 214,-40.8"/>
</g>
<g id="clust6" class="cluster">
<title>cluster_StudentPageModule_imports</title>
<polygon fill="none" stroke="black" points="16,-40.8 16,-92.8 206,-92.8 206,-40.8 16,-40.8"/>
</g>
<!-- AboutComponent -->
<g id="node1" class="node">
<title>AboutComponent</title>
<polygon fill="#ffffb3" stroke="black" points="580.33,-84.8 463.67,-84.8 463.67,-48.8 580.33,-48.8 580.33,-84.8"/>
<text text-anchor="middle" x="522" y="-62.6" font-family="Times,serif" font-size="14.00">AboutComponent</text>
</g>
<!-- StudentPageModule -->
<g id="node4" class="node">
<title>StudentPageModule</title>
<polygon fill="#8dd3c7" stroke="black" points="389.54,-149.8 386.54,-153.8 365.54,-153.8 362.54,-149.8 260.46,-149.8 260.46,-113.8 389.54,-113.8 389.54,-149.8"/>
<text text-anchor="middle" x="325" y="-127.6" font-family="Times,serif" font-size="14.00">StudentPageModule</text>
</g>
<!-- AboutComponent&#45;&gt;StudentPageModule -->
<g id="edge1" class="edge">
<title>AboutComponent&#45;&gt;StudentPageModule</title>
<path fill="none" stroke="black" d="M522,-84.91C522,-104.14 522,-131.8 522,-131.8 522,-131.8 399.78,-131.8 399.78,-131.8"/>
<polygon fill="black" stroke="black" points="399.78,-128.3 389.78,-131.8 399.78,-135.3 399.78,-128.3"/>
</g>
<!-- ReportComponent -->
<g id="node2" class="node">
<title>ReportComponent</title>
<polygon fill="#ffffb3" stroke="black" points="445.94,-84.8 326.06,-84.8 326.06,-48.8 445.94,-48.8 445.94,-84.8"/>
<text text-anchor="middle" x="386" y="-62.6" font-family="Times,serif" font-size="14.00">ReportComponent</text>
</g>
<!-- ReportComponent&#45;&gt;StudentPageModule -->
<g id="edge2" class="edge">
<title>ReportComponent&#45;&gt;StudentPageModule</title>
<path fill="none" stroke="black" d="M358.03,-84.91C358.03,-84.91 358.03,-103.79 358.03,-103.79"/>
<polygon fill="black" stroke="black" points="354.53,-103.79 358.03,-113.79 361.53,-103.79 354.53,-103.79"/>
</g>
<!-- StudentPage -->
<g id="node3" class="node">
<title>StudentPage</title>
<polygon fill="#ffffb3" stroke="black" points="307.99,-84.8 222.01,-84.8 222.01,-48.8 307.99,-48.8 307.99,-84.8"/>
<text text-anchor="middle" x="265" y="-62.6" font-family="Times,serif" font-size="14.00">StudentPage</text>
</g>
<!-- StudentPage&#45;&gt;StudentPageModule -->
<g id="edge3" class="edge">
<title>StudentPage&#45;&gt;StudentPageModule</title>
<path fill="none" stroke="black" d="M284.11,-84.91C284.11,-84.91 284.11,-103.79 284.11,-103.79"/>
<polygon fill="black" stroke="black" points="280.61,-103.79 284.11,-113.79 287.61,-103.79 280.61,-103.79"/>
</g>
<!-- StudentPageRoutingModule -->
<g id="node5" class="node">
<title>StudentPageRoutingModule</title>
<polygon fill="#8dd3c7" stroke="black" points="198.16,-84.8 195.16,-88.8 174.16,-88.8 171.16,-84.8 23.84,-84.8 23.84,-48.8 198.16,-48.8 198.16,-84.8"/>
<text text-anchor="middle" x="111" y="-62.6" font-family="Times,serif" font-size="14.00">StudentPageRoutingModule</text>
</g>
<!-- StudentPageRoutingModule&#45;&gt;StudentPageModule -->
<g id="edge4" class="edge">
<title>StudentPageRoutingModule&#45;&gt;StudentPageModule</title>
<path fill="none" stroke="black" d="M111,-84.91C111,-104.14 111,-131.8 111,-131.8 111,-131.8 250.21,-131.8 250.21,-131.8"/>
<polygon fill="black" stroke="black" points="250.21,-135.3 260.21,-131.8 250.21,-128.3 250.21,-135.3"/>
</g>
</g>
</svg>
