<?xml version="1.0" encoding="UTF-8" standalone="no"?>
<!DOCTYPE svg PUBLIC "-//W3C//DTD SVG 1.1//EN"
 "http://www.w3.org/Graphics/SVG/1.1/DTD/svg11.dtd">
<!-- Generated by graphviz version 2.47.3 (20210619.1520)
 -->
<!-- Title: dependencies Pages: 1 -->
<svg width="3366pt" height="247pt"
 viewBox="0.00 0.00 3366.00 246.80" xmlns="http://www.w3.org/2000/svg" xmlns:xlink="http://www.w3.org/1999/xlink">
<g id="graph0" class="graph" transform="scale(1 1) rotate(0) translate(4 242.8)">
<title>dependencies</title>
<polygon fill="white" stroke="transparent" points="-4,4 -4,-242.8 3362,-242.8 3362,4 -4,4"/>
<text text-anchor="middle" x="1679" y="-8.2" font-family="sans-serif" font-size="14.00">dependencies</text>
<g id="clust1" class="cluster">
<title>cluster_AdminPageModule</title>
<polygon fill="none" stroke="black" stroke-dasharray="1,5" points="8,-32.8 8,-157.8 1045,-157.8 1045,-32.8 8,-32.8"/>
</g>
<g id="clust2" class="cluster">
<title>cluster_AdminPageModule_declarations</title>
<polygon fill="none" stroke="black" points="210,-40.8 210,-92.8 1037,-92.8 1037,-40.8 210,-40.8"/>
</g>
<g id="clust9" class="cluster">
<title>cluster_AdminPageModule_imports</title>
<polygon fill="none" stroke="black" points="16,-40.8 16,-92.8 202,-92.8 202,-40.8 16,-40.8"/>
</g>
<g id="clust19" class="cluster">
<title>cluster_AppModule</title>
<polygon fill="none" stroke="black" stroke-dasharray="1,5" points="1053,-32.8 1053,-230.8 1651,-230.8 1651,-32.8 1053,-32.8"/>
</g>
<g id="clust20" class="cluster">
<title>cluster_AppModule_declarations</title>
<polygon fill="none" stroke="black" points="1237,-40.8 1237,-92.8 1491,-92.8 1491,-40.8 1237,-40.8"/>
</g>
<g id="clust23" class="cluster">
<title>cluster_AppModule_imports</title>
<polygon fill="none" stroke="black" points="1499,-40.8 1499,-92.8 1643,-92.8 1643,-40.8 1499,-40.8"/>
</g>
<g id="clust25" class="cluster">
<title>cluster_AppModule_bootstrap</title>
<polygon fill="none" stroke="black" points="1304,-170.8 1304,-222.8 1428,-222.8 1428,-170.8 1304,-170.8"/>
</g>
<g id="clust26" class="cluster">
<title>cluster_AppModule_providers</title>
<polygon fill="none" stroke="black" points="1061,-40.8 1061,-92.8 1229,-92.8 1229,-40.8 1061,-40.8"/>
</g>
<g id="clust33" class="cluster">
<title>cluster_ComponentsModule</title>
<polygon fill="none" stroke="black" stroke-dasharray="1,5" points="1659,-32.8 1659,-157.8 2390,-157.8 2390,-32.8 1659,-32.8"/>
</g>
<g id="clust34" class="cluster">
<title>cluster_ComponentsModule_declarations</title>
<polygon fill="none" stroke="black" points="1667,-40.8 1667,-92.8 2382,-92.8 2382,-40.8 1667,-40.8"/>
</g>
<g id="clust43" class="cluster">
<title>cluster_CooperatorPageModule</title>
<polygon fill="none" stroke="black" stroke-dasharray="1,5" points="2398,-32.8 2398,-157.8 2754,-157.8 2754,-32.8 2398,-32.8"/>
</g>
<g id="clust44" class="cluster">
<title>cluster_CooperatorPageModule_declarations</title>
<polygon fill="none" stroke="black" points="2624,-40.8 2624,-92.8 2746,-92.8 2746,-40.8 2624,-40.8"/>
</g>
<g id="clust46" class="cluster">
<title>cluster_CooperatorPageModule_imports</title>
<polygon fill="none" stroke="black" points="2406,-40.8 2406,-92.8 2616,-92.8 2616,-40.8 2406,-40.8"/>
</g>
<g id="clust56" class="cluster">
<title>cluster_StudentPageModule</title>
<polygon fill="none" stroke="black" stroke-dasharray="1,5" points="2762,-32.8 2762,-157.8 3350,-157.8 3350,-32.8 2762,-32.8"/>
</g>
<g id="clust57" class="cluster">
<title>cluster_StudentPageModule_declarations</title>
<polygon fill="none" stroke="black" points="2968,-40.8 2968,-92.8 3342,-92.8 3342,-40.8 2968,-40.8"/>
</g>
<g id="clust61" class="cluster">
<title>cluster_StudentPageModule_imports</title>
<polygon fill="none" stroke="black" points="2770,-40.8 2770,-92.8 2960,-92.8 2960,-40.8 2770,-40.8"/>
</g>
<!-- AdminPage -->
<g id="node1" class="node">
<title>AdminPage</title>
<polygon fill="#ffffb3" stroke="black" points="1029.1,-84.8 946.9,-84.8 946.9,-48.8 1029.1,-48.8 1029.1,-84.8"/>
<text text-anchor="middle" x="988" y="-62.6" font-family="Times,serif" font-size="14.00">AdminPage</text>
</g>
<!-- AdminPageModule -->
<g id="node7" class="node">
<title>AdminPageModule</title>
<polygon fill="#8dd3c7" stroke="black" points="641.65,-149.8 638.65,-153.8 617.65,-153.8 614.65,-149.8 516.35,-149.8 516.35,-113.8 641.65,-113.8 641.65,-149.8"/>
<text text-anchor="middle" x="579" y="-127.6" font-family="Times,serif" font-size="14.00">AdminPageModule</text>
</g>
<!-- AdminPage&#45;&gt;AdminPageModule -->
<g id="edge1" class="edge">
<title>AdminPage&#45;&gt;AdminPageModule</title>
<path fill="none" stroke="black" d="M988,-84.81C988,-107.29 988,-142.8 988,-142.8 988,-142.8 652.01,-142.8 652.01,-142.8"/>
<polygon fill="black" stroke="black" points="652.01,-139.3 642.01,-142.8 652.01,-146.3 652.01,-139.3"/>
</g>
<!-- CooperatorComponent -->
<g id="node2" class="node">
<title>CooperatorComponent</title>
<polygon fill="#ffffb3" stroke="black" points="929.31,-84.8 784.69,-84.8 784.69,-48.8 929.31,-48.8 929.31,-84.8"/>
<text text-anchor="middle" x="857" y="-62.6" font-family="Times,serif" font-size="14.00">CooperatorComponent</text>
</g>
<!-- CooperatorComponent&#45;&gt;AdminPageModule -->
<g id="edge2" class="edge">
<title>CooperatorComponent&#45;&gt;AdminPageModule</title>
<path fill="none" stroke="black" d="M857,-84.93C857,-105.37 857,-135.8 857,-135.8 857,-135.8 651.74,-135.8 651.74,-135.8"/>
<polygon fill="black" stroke="black" points="651.74,-132.3 641.74,-135.8 651.74,-139.3 651.74,-132.3"/>
</g>
<!-- MailComponent -->
<g id="node3" class="node">
<title>MailComponent</title>
<polygon fill="#ffffb3" stroke="black" points="766.77,-84.8 659.23,-84.8 659.23,-48.8 766.77,-48.8 766.77,-84.8"/>
<text text-anchor="middle" x="713" y="-62.6" font-family="Times,serif" font-size="14.00">MailComponent</text>
</g>
<!-- MailComponent&#45;&gt;AdminPageModule -->
<g id="edge3" class="edge">
<title>MailComponent&#45;&gt;AdminPageModule</title>
<path fill="none" stroke="black" d="M713,-85.07C713,-103.36 713,-128.8 713,-128.8 713,-128.8 651.68,-128.8 651.68,-128.8"/>
<polygon fill="black" stroke="black" points="651.68,-125.3 641.68,-128.8 651.68,-132.3 651.68,-125.3"/>
</g>
<!-- ProductComponent -->
<g id="node4" class="node">
<title>ProductComponent</title>
<polygon fill="#ffffb3" stroke="black" points="641.38,-84.8 516.62,-84.8 516.62,-48.8 641.38,-48.8 641.38,-84.8"/>
<text text-anchor="middle" x="579" y="-62.6" font-family="Times,serif" font-size="14.00">ProductComponent</text>
</g>
<!-- ProductComponent&#45;&gt;AdminPageModule -->
<g id="edge4" class="edge">
<title>ProductComponent&#45;&gt;AdminPageModule</title>
<path fill="none" stroke="black" d="M579,-84.91C579,-84.91 579,-103.79 579,-103.79"/>
<polygon fill="black" stroke="black" points="575.5,-103.79 579,-113.79 582.5,-103.79 575.5,-103.79"/>
</g>
<!-- QrBannerComponent -->
<g id="node5" class="node">
<title>QrBannerComponent</title>
<polygon fill="#ffffb3" stroke="black" points="498.03,-84.8 361.97,-84.8 361.97,-48.8 498.03,-48.8 498.03,-84.8"/>
<text text-anchor="middle" x="430" y="-62.6" font-family="Times,serif" font-size="14.00">QrBannerComponent</text>
</g>
<!-- QrBannerComponent&#45;&gt;AdminPageModule -->
<g id="edge5" class="edge">
<title>QrBannerComponent&#45;&gt;AdminPageModule</title>
<path fill="none" stroke="black" d="M430,-84.83C430,-101.2 430,-122.8 430,-122.8 430,-122.8 506.24,-122.8 506.24,-122.8"/>
<polygon fill="black" stroke="black" points="506.24,-126.3 516.24,-122.8 506.24,-119.3 506.24,-126.3"/>
</g>
<!-- SettingsComponent -->
<g id="node6" class="node">
<title>SettingsComponent</title>
<polygon fill="#ffffb3" stroke="black" points="344.45,-84.8 217.55,-84.8 217.55,-48.8 344.45,-48.8 344.45,-84.8"/>
<text text-anchor="middle" x="281" y="-62.6" font-family="Times,serif" font-size="14.00">SettingsComponent</text>
</g>
<!-- SettingsComponent&#45;&gt;AdminPageModule -->
<g id="edge6" class="edge">
<title>SettingsComponent&#45;&gt;AdminPageModule</title>
<path fill="none" stroke="black" d="M281,-84.91C281,-104.14 281,-131.8 281,-131.8 281,-131.8 506.17,-131.8 506.17,-131.8"/>
<polygon fill="black" stroke="black" points="506.17,-135.3 516.17,-131.8 506.17,-128.3 506.17,-135.3"/>
</g>
<!-- AdminPageRoutingModule -->
<g id="node8" class="node">
<title>AdminPageRoutingModule</title>
<polygon fill="#8dd3c7" stroke="black" points="194.27,-84.8 191.27,-88.8 170.27,-88.8 167.27,-84.8 23.73,-84.8 23.73,-48.8 194.27,-48.8 194.27,-84.8"/>
<text text-anchor="middle" x="109" y="-62.6" font-family="Times,serif" font-size="14.00">AdminPageRoutingModule</text>
</g>
<!-- AdminPageRoutingModule&#45;&gt;AdminPageModule -->
<g id="edge7" class="edge">
<title>AdminPageRoutingModule&#45;&gt;AdminPageModule</title>
<path fill="none" stroke="black" d="M109,-85.09C109,-107.01 109,-140.8 109,-140.8 109,-140.8 506.1,-140.8 506.1,-140.8"/>
<polygon fill="black" stroke="black" points="506.1,-144.3 516.1,-140.8 506.1,-137.3 506.1,-144.3"/>
</g>
<!-- AppComponent -->
<g id="node9" class="node">
<title>AppComponent</title>
<polygon fill="#ffffb3" stroke="black" points="1482.94,-84.8 1377.06,-84.8 1377.06,-48.8 1482.94,-48.8 1482.94,-84.8"/>
<text text-anchor="middle" x="1430" y="-62.6" font-family="Times,serif" font-size="14.00">AppComponent</text>
</g>
<!-- AppModule -->
<g id="node11" class="node">
<title>AppModule</title>
<polygon fill="#8dd3c7" stroke="black" points="1407.66,-149.8 1404.66,-153.8 1383.66,-153.8 1380.66,-149.8 1324.34,-149.8 1324.34,-113.8 1407.66,-113.8 1407.66,-149.8"/>
<text text-anchor="middle" x="1366" y="-127.6" font-family="Times,serif" font-size="14.00">AppModule</text>
</g>
<!-- AppComponent&#45;&gt;AppModule -->
<g id="edge8" class="edge">
<title>AppComponent&#45;&gt;AppModule</title>
<path fill="none" stroke="black" d="M1392.55,-84.91C1392.55,-84.91 1392.55,-103.79 1392.55,-103.79"/>
<polygon fill="black" stroke="black" points="1389.05,-103.79 1392.55,-113.79 1396.05,-103.79 1389.05,-103.79"/>
</g>
<!-- LoginComponent -->
<g id="node10" class="node">
<title>LoginComponent</title>
<polygon fill="#ffffb3" stroke="black" points="1359.28,-84.8 1244.72,-84.8 1244.72,-48.8 1359.28,-48.8 1359.28,-84.8"/>
<text text-anchor="middle" x="1302" y="-62.6" font-family="Times,serif" font-size="14.00">LoginComponent</text>
</g>
<!-- LoginComponent&#45;&gt;AppModule -->
<g id="edge9" class="edge">
<title>LoginComponent&#45;&gt;AppModule</title>
<path fill="none" stroke="black" d="M1341.78,-84.91C1341.78,-84.91 1341.78,-103.79 1341.78,-103.79"/>
<polygon fill="black" stroke="black" points="1338.28,-103.79 1341.78,-113.79 1345.28,-103.79 1338.28,-103.79"/>
</g>
<!-- AppComponent  -->
<g id="node13" class="node">
<title>AppComponent </title>
<polygon fill="#80b1d3" stroke="black" points="1420.44,-214.8 1311.56,-214.8 1311.56,-178.8 1420.44,-178.8 1420.44,-214.8"/>
<text text-anchor="middle" x="1366" y="-192.6" font-family="Times,serif" font-size="14.00">AppComponent </text>
</g>
<!-- AppModule&#45;&gt;AppComponent  -->
<g id="edge11" class="edge">
<title>AppModule&#45;&gt;AppComponent </title>
<path fill="none" stroke="black" stroke-dasharray="1,5" d="M1366,-149.91C1366,-149.91 1366,-168.79 1366,-168.79"/>
<polygon fill="black" stroke="black" points="1362.5,-168.79 1366,-178.79 1369.5,-168.79 1362.5,-168.79"/>
</g>
<!-- AppRoutingModule -->
<g id="node12" class="node">
<title>AppRoutingModule</title>
<polygon fill="#8dd3c7" stroke="black" points="1635.27,-84.8 1632.27,-88.8 1611.27,-88.8 1608.27,-84.8 1506.73,-84.8 1506.73,-48.8 1635.27,-48.8 1635.27,-84.8"/>
<text text-anchor="middle" x="1571" y="-62.6" font-family="Times,serif" font-size="14.00">AppRoutingModule</text>
</g>
<!-- AppRoutingModule&#45;&gt;AppModule -->
<g id="edge10" class="edge">
<title>AppRoutingModule&#45;&gt;AppModule</title>
<path fill="none" stroke="black" d="M1549.54,-84.83C1549.54,-101.2 1549.54,-122.8 1549.54,-122.8 1549.54,-122.8 1418.11,-122.8 1418.11,-122.8"/>
<polygon fill="black" stroke="black" points="1418.11,-119.3 1408.11,-122.8 1418.11,-126.3 1418.11,-119.3"/>
</g>
<!-- ComponentsModule -->
<g id="node19" class="node">
<title>ComponentsModule</title>
<polygon fill="#8dd3c7" stroke="black" points="2005.33,-149.8 2002.33,-153.8 1981.33,-153.8 1978.33,-149.8 1874.67,-149.8 1874.67,-113.8 2005.33,-113.8 2005.33,-149.8"/>
<text text-anchor="middle" x="1940" y="-127.6" font-family="Times,serif" font-size="14.00">ComponentsModule</text>
</g>
<!-- AppRoutingModule&#45;&gt;ComponentsModule -->
<g id="edge17" class="edge">
<title>AppRoutingModule&#45;&gt;ComponentsModule</title>
<path fill="none" stroke="black" d="M1592.46,-85.09C1592.46,-107.01 1592.46,-140.8 1592.46,-140.8 1592.46,-140.8 1864.63,-140.8 1864.63,-140.8"/>
<polygon fill="black" stroke="black" points="1864.63,-144.3 1874.63,-140.8 1864.63,-137.3 1864.63,-144.3"/>
</g>
<!-- BarcodeProvider -->
<g id="node14" class="node">
<title>BarcodeProvider</title>
<ellipse fill="#fdb462" stroke="black" cx="1145" cy="-66.8" rx="76.42" ry="18"/>
<text text-anchor="middle" x="1145" y="-62.6" font-family="Times,serif" font-size="14.00">BarcodeProvider</text>
</g>
<!-- BarcodeProvider&#45;&gt;AppModule -->
<g id="edge12" class="edge">
<title>BarcodeProvider&#45;&gt;AppModule</title>
<path fill="none" stroke="black" d="M1145,-84.81C1145,-100.85 1145,-121.8 1145,-121.8 1145,-121.8 1314.17,-121.8 1314.17,-121.8"/>
<polygon fill="black" stroke="black" points="1314.17,-125.3 1324.17,-121.8 1314.17,-118.3 1314.17,-125.3"/>
</g>
<!-- AddModalComponent -->
<g id="node15" class="node">
<title>AddModalComponent</title>
<polygon fill="#ffffb3" stroke="black" points="2373.99,-84.8 2232.01,-84.8 2232.01,-48.8 2373.99,-48.8 2373.99,-84.8"/>
<text text-anchor="middle" x="2303" y="-62.6" font-family="Times,serif" font-size="14.00">AddModalComponent</text>
</g>
<!-- AddModalComponent&#45;&gt;ComponentsModule -->
<g id="edge13" class="edge">
<title>AddModalComponent&#45;&gt;ComponentsModule</title>
<path fill="none" stroke="black" d="M2303,-85.08C2303,-106.12 2303,-137.8 2303,-137.8 2303,-137.8 2015.32,-137.8 2015.32,-137.8"/>
<polygon fill="black" stroke="black" points="2015.32,-134.3 2005.32,-137.8 2015.32,-141.3 2015.32,-134.3"/>
</g>
<!-- ManageStockComponent -->
<g id="node16" class="node">
<title>ManageStockComponent</title>
<polygon fill="#ffffb3" stroke="black" points="2214.31,-84.8 2055.69,-84.8 2055.69,-48.8 2214.31,-48.8 2214.31,-84.8"/>
<text text-anchor="middle" x="2135" y="-62.6" font-family="Times,serif" font-size="14.00">ManageStockComponent</text>
</g>
<!-- ManageStockComponent&#45;&gt;ComponentsModule -->
<g id="edge14" class="edge">
<title>ManageStockComponent&#45;&gt;ComponentsModule</title>
<path fill="none" stroke="black" d="M2135,-84.82C2135,-102.17 2135,-125.8 2135,-125.8 2135,-125.8 2015.2,-125.8 2015.2,-125.8"/>
<polygon fill="black" stroke="black" points="2015.2,-122.3 2005.2,-125.8 2015.2,-129.3 2015.2,-122.3"/>
</g>
<!-- ModalManageStockComponent -->
<g id="node17" class="node">
<title>ModalManageStockComponent</title>
<polygon fill="#ffffb3" stroke="black" points="2037.36,-84.8 1842.64,-84.8 1842.64,-48.8 2037.36,-48.8 2037.36,-84.8"/>
<text text-anchor="middle" x="1940" y="-62.6" font-family="Times,serif" font-size="14.00">ModalManageStockComponent</text>
</g>
<!-- ModalManageStockComponent&#45;&gt;ComponentsModule -->
<g id="edge15" class="edge">
<title>ModalManageStockComponent&#45;&gt;ComponentsModule</title>
<path fill="none" stroke="black" d="M1940,-84.91C1940,-84.91 1940,-103.79 1940,-103.79"/>
<polygon fill="black" stroke="black" points="1936.5,-103.79 1940,-113.79 1943.5,-103.79 1936.5,-103.79"/>
</g>
<!-- VerifiedSvgComponent -->
<g id="node18" class="node">
<title>VerifiedSvgComponent</title>
<polygon fill="#ffffb3" stroke="black" points="1824.75,-84.8 1675.25,-84.8 1675.25,-48.8 1824.75,-48.8 1824.75,-84.8"/>
<text text-anchor="middle" x="1750" y="-62.6" font-family="Times,serif" font-size="14.00">VerifiedSvgComponent</text>
</g>
<!-- VerifiedSvgComponent&#45;&gt;ComponentsModule -->
<g id="edge16" class="edge">
<title>VerifiedSvgComponent&#45;&gt;ComponentsModule</title>
<path fill="none" stroke="black" d="M1750,-84.91C1750,-104.14 1750,-131.8 1750,-131.8 1750,-131.8 1864.61,-131.8 1864.61,-131.8"/>
<polygon fill="black" stroke="black" points="1864.61,-135.3 1874.61,-131.8 1864.61,-128.3 1864.61,-135.3"/>
</g>
<!-- CooperatorPage -->
<g id="node20" class="node">
<title>CooperatorPage</title>
<polygon fill="#ffffb3" stroke="black" points="2738.19,-84.8 2631.81,-84.8 2631.81,-48.8 2738.19,-48.8 2738.19,-84.8"/>
<text text-anchor="middle" x="2685" y="-62.6" font-family="Times,serif" font-size="14.00">CooperatorPage</text>
</g>
<!-- CooperatorPageModule -->
<g id="node21" class="node">
<title>CooperatorPageModule</title>
<polygon fill="#8dd3c7" stroke="black" points="2665.74,-149.8 2662.74,-153.8 2641.74,-153.8 2638.74,-149.8 2516.26,-149.8 2516.26,-113.8 2665.74,-113.8 2665.74,-149.8"/>
<text text-anchor="middle" x="2591" y="-127.6" font-family="Times,serif" font-size="14.00">CooperatorPageModule</text>
</g>
<!-- CooperatorPage&#45;&gt;CooperatorPageModule -->
<g id="edge18" class="edge">
<title>CooperatorPage&#45;&gt;CooperatorPageModule</title>
<path fill="none" stroke="black" d="M2648.89,-84.91C2648.89,-84.91 2648.89,-103.79 2648.89,-103.79"/>
<polygon fill="black" stroke="black" points="2645.39,-103.79 2648.89,-113.79 2652.39,-103.79 2645.39,-103.79"/>
</g>
<!-- CooperatorPageRoutingModule -->
<g id="node22" class="node">
<title>CooperatorPageRoutingModule</title>
<polygon fill="#8dd3c7" stroke="black" points="2608.36,-84.8 2605.36,-88.8 2584.36,-88.8 2581.36,-84.8 2413.64,-84.8 2413.64,-48.8 2608.36,-48.8 2608.36,-84.8"/>
<text text-anchor="middle" x="2511" y="-62.6" font-family="Times,serif" font-size="14.00">CooperatorPageRoutingModule</text>
</g>
<!-- CooperatorPageRoutingModule&#45;&gt;CooperatorPageModule -->
<g id="edge19" class="edge">
<title>CooperatorPageRoutingModule&#45;&gt;CooperatorPageModule</title>
<path fill="none" stroke="black" d="M2562.28,-84.91C2562.28,-84.91 2562.28,-103.79 2562.28,-103.79"/>
<polygon fill="black" stroke="black" points="2558.78,-103.79 2562.28,-113.79 2565.78,-103.79 2558.78,-103.79"/>
</g>
<!-- AboutComponent -->
<g id="node23" class="node">
<title>AboutComponent</title>
<polygon fill="#ffffb3" stroke="black" points="3334.33,-84.8 3217.67,-84.8 3217.67,-48.8 3334.33,-48.8 3334.33,-84.8"/>
<text text-anchor="middle" x="3276" y="-62.6" font-family="Times,serif" font-size="14.00">AboutComponent</text>
</g>
<!-- StudentPageModule -->
<g id="node26" class="node">
<title>StudentPageModule</title>
<polygon fill="#8dd3c7" stroke="black" points="3143.54,-149.8 3140.54,-153.8 3119.54,-153.8 3116.54,-149.8 3014.46,-149.8 3014.46,-113.8 3143.54,-113.8 3143.54,-149.8"/>
<text text-anchor="middle" x="3079" y="-127.6" font-family="Times,serif" font-size="14.00">StudentPageModule</text>
</g>
<!-- AboutComponent&#45;&gt;StudentPageModule -->
<g id="edge20" class="edge">
<title>AboutComponent&#45;&gt;StudentPageModule</title>
<path fill="none" stroke="black" d="M3276,-84.91C3276,-104.14 3276,-131.8 3276,-131.8 3276,-131.8 3153.78,-131.8 3153.78,-131.8"/>
<polygon fill="black" stroke="black" points="3153.78,-128.3 3143.78,-131.8 3153.78,-135.3 3153.78,-128.3"/>
</g>
<!-- ReportComponent -->
<g id="node24" class="node">
<title>ReportComponent</title>
<polygon fill="#ffffb3" stroke="black" points="3199.94,-84.8 3080.06,-84.8 3080.06,-48.8 3199.94,-48.8 3199.94,-84.8"/>
<text text-anchor="middle" x="3140" y="-62.6" font-family="Times,serif" font-size="14.00">ReportComponent</text>
</g>
<!-- ReportComponent&#45;&gt;StudentPageModule -->
<g id="edge21" class="edge">
<title>ReportComponent&#45;&gt;StudentPageModule</title>
<path fill="none" stroke="black" d="M3112.03,-84.91C3112.03,-84.91 3112.03,-103.79 3112.03,-103.79"/>
<polygon fill="black" stroke="black" points="3108.53,-103.79 3112.03,-113.79 3115.53,-103.79 3108.53,-103.79"/>
</g>
<!-- StudentPage -->
<g id="node25" class="node">
<title>StudentPage</title>
<polygon fill="#ffffb3" stroke="black" points="3061.99,-84.8 2976.01,-84.8 2976.01,-48.8 3061.99,-48.8 3061.99,-84.8"/>
<text text-anchor="middle" x="3019" y="-62.6" font-family="Times,serif" font-size="14.00">StudentPage</text>
</g>
<!-- StudentPage&#45;&gt;StudentPageModule -->
<g id="edge22" class="edge">
<title>StudentPage&#45;&gt;StudentPageModule</title>
<path fill="none" stroke="black" d="M3038.11,-84.91C3038.11,-84.91 3038.11,-103.79 3038.11,-103.79"/>
<polygon fill="black" stroke="black" points="3034.61,-103.79 3038.11,-113.79 3041.61,-103.79 3034.61,-103.79"/>
</g>
<!-- StudentPageRoutingModule -->
<g id="node27" class="node">
<title>StudentPageRoutingModule</title>
<polygon fill="#8dd3c7" stroke="black" points="2952.16,-84.8 2949.16,-88.8 2928.16,-88.8 2925.16,-84.8 2777.84,-84.8 2777.84,-48.8 2952.16,-48.8 2952.16,-84.8"/>
<text text-anchor="middle" x="2865" y="-62.6" font-family="Times,serif" font-size="14.00">StudentPageRoutingModule</text>
</g>
<!-- StudentPageRoutingModule&#45;&gt;StudentPageModule -->
<g id="edge23" class="edge">
<title>StudentPageRoutingModule&#45;&gt;StudentPageModule</title>
<path fill="none" stroke="black" d="M2865,-84.91C2865,-104.14 2865,-131.8 2865,-131.8 2865,-131.8 3004.21,-131.8 3004.21,-131.8"/>
<polygon fill="black" stroke="black" points="3004.21,-135.3 3014.21,-131.8 3004.21,-128.3 3004.21,-135.3"/>
</g>
</g>
</svg>
