<?xml version="1.0" encoding="UTF-8" standalone="no"?>
<!DOCTYPE svg PUBLIC "-//W3C//DTD SVG 1.1//EN"
 "http://www.w3.org/Graphics/SVG/1.1/DTD/svg11.dtd">
<!-- Generated by graphviz version 2.47.3 (20210619.1520)
 -->
<!-- Title: dependencies Pages: 1 -->
<svg width="622pt" height="247pt"
 viewBox="0.00 0.00 622.00 246.80" xmlns="http://www.w3.org/2000/svg" xmlns:xlink="http://www.w3.org/1999/xlink">
<g id="graph0" class="graph" transform="scale(1 1) rotate(0) translate(4 242.8)">
<title>dependencies</title>
<polygon fill="white" stroke="transparent" points="-4,4 -4,-242.8 618,-242.8 618,4 -4,4"/>
<text text-anchor="middle" x="307" y="-8.2" font-family="sans-serif" font-size="14.00">dependencies</text>
<g id="clust1" class="cluster">
<title>cluster_AppModule</title>
<polygon fill="none" stroke="black" stroke-dasharray="1,5" points="8,-32.8 8,-230.8 606,-230.8 606,-32.8 8,-32.8"/>
</g>
<g id="clust2" class="cluster">
<title>cluster_AppModule_declarations</title>
<polygon fill="none" stroke="black" points="344,-40.8 344,-92.8 598,-92.8 598,-40.8 344,-40.8"/>
</g>
<g id="clust5" class="cluster">
<title>cluster_AppModule_imports</title>
<polygon fill="none" stroke="black" points="192,-40.8 192,-92.8 336,-92.8 336,-40.8 192,-40.8"/>
</g>
<g id="clust7" class="cluster">
<title>cluster_AppModule_bootstrap</title>
<polygon fill="none" stroke="black" points="274,-170.8 274,-222.8 398,-222.8 398,-170.8 274,-170.8"/>
</g>
<g id="clust8" class="cluster">
<title>cluster_AppModule_providers</title>
<polygon fill="none" stroke="black" points="16,-40.8 16,-92.8 184,-92.8 184,-40.8 16,-40.8"/>
</g>
<!-- AppComponent -->
<g id="node1" class="node">
<title>AppComponent</title>
<polygon fill="#ffffb3" stroke="black" points="589.94,-84.8 484.06,-84.8 484.06,-48.8 589.94,-48.8 589.94,-84.8"/>
<text text-anchor="middle" x="537" y="-62.6" font-family="Times,serif" font-size="14.00">AppComponent</text>
</g>
<!-- AppModule -->
<g id="node3" class="node">
<title>AppModule</title>
<polygon fill="#8dd3c7" stroke="black" points="377.66,-149.8 374.66,-153.8 353.66,-153.8 350.66,-149.8 294.34,-149.8 294.34,-113.8 377.66,-113.8 377.66,-149.8"/>
<text text-anchor="middle" x="336" y="-127.6" font-family="Times,serif" font-size="14.00">AppModule</text>
</g>
<!-- AppComponent&#45;&gt;AppModule -->
<g id="edge1" class="edge">
<title>AppComponent&#45;&gt;AppModule</title>
<path fill="none" stroke="black" d="M537,-84.91C537,-104.14 537,-131.8 537,-131.8 537,-131.8 388.14,-131.8 388.14,-131.8"/>
<polygon fill="black" stroke="black" points="388.14,-128.3 378.14,-131.8 388.14,-135.3 388.14,-128.3"/>
</g>
<!-- LoginComponent -->
<g id="node2" class="node">
<title>LoginComponent</title>
<polygon fill="#ffffb3" stroke="black" points="466.28,-84.8 351.72,-84.8 351.72,-48.8 466.28,-48.8 466.28,-84.8"/>
<text text-anchor="middle" x="409" y="-62.6" font-family="Times,serif" font-size="14.00">LoginComponent</text>
</g>
<!-- LoginComponent&#45;&gt;AppModule -->
<g id="edge2" class="edge">
<title>LoginComponent&#45;&gt;AppModule</title>
<path fill="none" stroke="black" d="M364.72,-84.91C364.72,-84.91 364.72,-103.79 364.72,-103.79"/>
<polygon fill="black" stroke="black" points="361.22,-103.79 364.72,-113.79 368.22,-103.79 361.22,-103.79"/>
</g>
<!-- AppComponent  -->
<g id="node5" class="node">
<title>AppComponent </title>
<polygon fill="#80b1d3" stroke="black" points="390.44,-214.8 281.56,-214.8 281.56,-178.8 390.44,-178.8 390.44,-214.8"/>
<text text-anchor="middle" x="336" y="-192.6" font-family="Times,serif" font-size="14.00">AppComponent </text>
</g>
<!-- AppModule&#45;&gt;AppComponent  -->
<g id="edge4" class="edge">
<title>AppModule&#45;&gt;AppComponent </title>
<path fill="none" stroke="black" stroke-dasharray="1,5" d="M336,-149.91C336,-149.91 336,-168.79 336,-168.79"/>
<polygon fill="black" stroke="black" points="332.5,-168.79 336,-178.79 339.5,-168.79 332.5,-168.79"/>
</g>
<!-- AppRoutingModule -->
<g id="node4" class="node">
<title>AppRoutingModule</title>
<polygon fill="#8dd3c7" stroke="black" points="328.27,-84.8 325.27,-88.8 304.27,-88.8 301.27,-84.8 199.73,-84.8 199.73,-48.8 328.27,-48.8 328.27,-84.8"/>
<text text-anchor="middle" x="264" y="-62.6" font-family="Times,serif" font-size="14.00">AppRoutingModule</text>
</g>
<!-- AppRoutingModule&#45;&gt;AppModule -->
<g id="edge3" class="edge">
<title>AppRoutingModule&#45;&gt;AppModule</title>
<path fill="none" stroke="black" d="M311.28,-84.91C311.28,-84.91 311.28,-103.79 311.28,-103.79"/>
<polygon fill="black" stroke="black" points="307.78,-103.79 311.28,-113.79 314.78,-103.79 307.78,-103.79"/>
</g>
<!-- BarcodeProvider -->
<g id="node6" class="node">
<title>BarcodeProvider</title>
<ellipse fill="#fdb462" stroke="black" cx="100" cy="-66.8" rx="76.42" ry="18"/>
<text text-anchor="middle" x="100" y="-62.6" font-family="Times,serif" font-size="14.00">BarcodeProvider</text>
</g>
<!-- BarcodeProvider&#45;&gt;AppModule -->
<g id="edge5" class="edge">
<title>BarcodeProvider&#45;&gt;AppModule</title>
<path fill="none" stroke="black" d="M100,-84.91C100,-104.14 100,-131.8 100,-131.8 100,-131.8 284.08,-131.8 284.08,-131.8"/>
<polygon fill="black" stroke="black" points="284.08,-135.3 294.08,-131.8 284.08,-128.3 284.08,-135.3"/>
</g>
</g>
</svg>
