<?xml version="1.0" encoding="UTF-8" standalone="no"?>
<!DOCTYPE svg PUBLIC "-//W3C//DTD SVG 1.1//EN"
 "http://www.w3.org/Graphics/SVG/1.1/DTD/svg11.dtd">
<!-- Generated by graphviz version 2.47.3 (20210619.1520)
 -->
<!-- Title: dependencies Pages: 1 -->
<svg width="1061pt" height="174pt"
 viewBox="0.00 0.00 1061.00 173.80" xmlns="http://www.w3.org/2000/svg" xmlns:xlink="http://www.w3.org/1999/xlink">
<g id="graph0" class="graph" transform="scale(1 1) rotate(0) translate(4 169.8)">
<title>dependencies</title>
<polygon fill="white" stroke="transparent" points="-4,4 -4,-169.8 1057,-169.8 1057,4 -4,4"/>
<text text-anchor="middle" x="526.5" y="-8.2" font-family="sans-serif" font-size="14.00">dependencies</text>
<g id="clust1" class="cluster">
<title>cluster_AdminPageModule</title>
<polygon fill="none" stroke="black" stroke-dasharray="1,5" points="8,-32.8 8,-157.8 1045,-157.8 1045,-32.8 8,-32.8"/>
</g>
<g id="clust2" class="cluster">
<title>cluster_AdminPageModule_declarations</title>
<polygon fill="none" stroke="black" points="210,-40.8 210,-92.8 1037,-92.8 1037,-40.8 210,-40.8"/>
</g>
<g id="clust9" class="cluster">
<title>cluster_AdminPageModule_imports</title>
<polygon fill="none" stroke="black" points="16,-40.8 16,-92.8 202,-92.8 202,-40.8 16,-40.8"/>
</g>
<!-- AdminPage -->
<g id="node1" class="node">
<title>AdminPage</title>
<polygon fill="#ffffb3" stroke="black" points="1029.1,-84.8 946.9,-84.8 946.9,-48.8 1029.1,-48.8 1029.1,-84.8"/>
<text text-anchor="middle" x="988" y="-62.6" font-family="Times,serif" font-size="14.00">AdminPage</text>
</g>
<!-- AdminPageModule -->
<g id="node7" class="node">
<title>AdminPageModule</title>
<polygon fill="#8dd3c7" stroke="black" points="641.65,-149.8 638.65,-153.8 617.65,-153.8 614.65,-149.8 516.35,-149.8 516.35,-113.8 641.65,-113.8 641.65,-149.8"/>
<text text-anchor="middle" x="579" y="-127.6" font-family="Times,serif" font-size="14.00">AdminPageModule</text>
</g>
<!-- AdminPage&#45;&gt;AdminPageModule -->
<g id="edge1" class="edge">
<title>AdminPage&#45;&gt;AdminPageModule</title>
<path fill="none" stroke="black" d="M988,-85.09C988,-107.01 988,-140.8 988,-140.8 988,-140.8 652.01,-140.8 652.01,-140.8"/>
<polygon fill="black" stroke="black" points="652.01,-137.3 642.01,-140.8 652.01,-144.3 652.01,-137.3"/>
</g>
<!-- CooperatorComponent -->
<g id="node2" class="node">
<title>CooperatorComponent</title>
<polygon fill="#ffffb3" stroke="black" points="929.31,-84.8 784.69,-84.8 784.69,-48.8 929.31,-48.8 929.31,-84.8"/>
<text text-anchor="middle" x="857" y="-62.6" font-family="Times,serif" font-size="14.00">CooperatorComponent</text>
</g>
<!-- CooperatorComponent&#45;&gt;AdminPageModule -->
<g id="edge2" class="edge">
<title>CooperatorComponent&#45;&gt;AdminPageModule</title>
<path fill="none" stroke="black" d="M857,-84.91C857,-104.14 857,-131.8 857,-131.8 857,-131.8 651.74,-131.8 651.74,-131.8"/>
<polygon fill="black" stroke="black" points="651.74,-128.3 641.74,-131.8 651.74,-135.3 651.74,-128.3"/>
</g>
<!-- MailComponent -->
<g id="node3" class="node">
<title>MailComponent</title>
<polygon fill="#ffffb3" stroke="black" points="766.77,-84.8 659.23,-84.8 659.23,-48.8 766.77,-48.8 766.77,-84.8"/>
<text text-anchor="middle" x="713" y="-62.6" font-family="Times,serif" font-size="14.00">MailComponent</text>
</g>
<!-- MailComponent&#45;&gt;AdminPageModule -->
<g id="edge3" class="edge">
<title>MailComponent&#45;&gt;AdminPageModule</title>
<path fill="none" stroke="black" d="M713,-84.83C713,-101.2 713,-122.8 713,-122.8 713,-122.8 651.68,-122.8 651.68,-122.8"/>
<polygon fill="black" stroke="black" points="651.68,-119.3 641.68,-122.8 651.68,-126.3 651.68,-119.3"/>
</g>
<!-- ProductComponent -->
<g id="node4" class="node">
<title>ProductComponent</title>
<polygon fill="#ffffb3" stroke="black" points="641.38,-84.8 516.62,-84.8 516.62,-48.8 641.38,-48.8 641.38,-84.8"/>
<text text-anchor="middle" x="579" y="-62.6" font-family="Times,serif" font-size="14.00">ProductComponent</text>
</g>
<!-- ProductComponent&#45;&gt;AdminPageModule -->
<g id="edge4" class="edge">
<title>ProductComponent&#45;&gt;AdminPageModule</title>
<path fill="none" stroke="black" d="M579,-84.91C579,-84.91 579,-103.79 579,-103.79"/>
<polygon fill="black" stroke="black" points="575.5,-103.79 579,-113.79 582.5,-103.79 575.5,-103.79"/>
</g>
<!-- QrBannerComponent -->
<g id="node5" class="node">
<title>QrBannerComponent</title>
<polygon fill="#ffffb3" stroke="black" points="498.03,-84.8 361.97,-84.8 361.97,-48.8 498.03,-48.8 498.03,-84.8"/>
<text text-anchor="middle" x="430" y="-62.6" font-family="Times,serif" font-size="14.00">QrBannerComponent</text>
</g>
<!-- QrBannerComponent&#45;&gt;AdminPageModule -->
<g id="edge5" class="edge">
<title>QrBannerComponent&#45;&gt;AdminPageModule</title>
<path fill="none" stroke="black" d="M430,-84.83C430,-101.2 430,-122.8 430,-122.8 430,-122.8 506.24,-122.8 506.24,-122.8"/>
<polygon fill="black" stroke="black" points="506.24,-126.3 516.24,-122.8 506.24,-119.3 506.24,-126.3"/>
</g>
<!-- SettingsComponent -->
<g id="node6" class="node">
<title>SettingsComponent</title>
<polygon fill="#ffffb3" stroke="black" points="344.45,-84.8 217.55,-84.8 217.55,-48.8 344.45,-48.8 344.45,-84.8"/>
<text text-anchor="middle" x="281" y="-62.6" font-family="Times,serif" font-size="14.00">SettingsComponent</text>
</g>
<!-- SettingsComponent&#45;&gt;AdminPageModule -->
<g id="edge6" class="edge">
<title>SettingsComponent&#45;&gt;AdminPageModule</title>
<path fill="none" stroke="black" d="M281,-84.91C281,-104.14 281,-131.8 281,-131.8 281,-131.8 506.17,-131.8 506.17,-131.8"/>
<polygon fill="black" stroke="black" points="506.17,-135.3 516.17,-131.8 506.17,-128.3 506.17,-135.3"/>
</g>
<!-- AdminPageRoutingModule -->
<g id="node8" class="node">
<title>AdminPageRoutingModule</title>
<polygon fill="#8dd3c7" stroke="black" points="194.27,-84.8 191.27,-88.8 170.27,-88.8 167.27,-84.8 23.73,-84.8 23.73,-48.8 194.27,-48.8 194.27,-84.8"/>
<text text-anchor="middle" x="109" y="-62.6" font-family="Times,serif" font-size="14.00">AdminPageRoutingModule</text>
</g>
<!-- AdminPageRoutingModule&#45;&gt;AdminPageModule -->
<g id="edge7" class="edge">
<title>AdminPageRoutingModule&#45;&gt;AdminPageModule</title>
<path fill="none" stroke="black" d="M109,-85.09C109,-107.01 109,-140.8 109,-140.8 109,-140.8 506.1,-140.8 506.1,-140.8"/>
<polygon fill="black" stroke="black" points="506.1,-144.3 516.1,-140.8 506.1,-137.3 506.1,-144.3"/>
</g>
</g>
</svg>
