<?xml version="1.0" encoding="UTF-8" standalone="no"?>
<!DOCTYPE svg PUBLIC "-//W3C//DTD SVG 1.1//EN"
 "http://www.w3.org/Graphics/SVG/1.1/DTD/svg11.dtd">
<!-- Generated by graphviz version 2.47.3 (20210619.1520)
 -->
<!-- Title: dependencies Pages: 1 -->
<svg width="380pt" height="174pt"
 viewBox="0.00 0.00 380.00 173.80" xmlns="http://www.w3.org/2000/svg" xmlns:xlink="http://www.w3.org/1999/xlink">
<g id="graph0" class="graph" transform="scale(1 1) rotate(0) translate(4 169.8)">
<title>dependencies</title>
<polygon fill="white" stroke="transparent" points="-4,4 -4,-169.8 376,-169.8 376,4 -4,4"/>
<text text-anchor="middle" x="186" y="-8.2" font-family="sans-serif" font-size="14.00">dependencies</text>
<g id="clust1" class="cluster">
<title>cluster_CooperatorPageModule</title>
<polygon fill="none" stroke="black" stroke-dasharray="1,5" points="8,-32.8 8,-157.8 364,-157.8 364,-32.8 8,-32.8"/>
</g>
<g id="clust4" class="cluster">
<title>cluster_CooperatorPageModule_imports</title>
<polygon fill="none" stroke="black" points="146,-40.8 146,-92.8 356,-92.8 356,-40.8 146,-40.8"/>
</g>
<g id="clust2" class="cluster">
<title>cluster_CooperatorPageModule_declarations</title>
<polygon fill="none" stroke="black" points="16,-40.8 16,-92.8 138,-92.8 138,-40.8 16,-40.8"/>
</g>
<!-- CooperatorPage -->
<g id="node1" class="node">
<title>CooperatorPage</title>
<polygon fill="#ffffb3" stroke="black" points="130.19,-84.8 23.81,-84.8 23.81,-48.8 130.19,-48.8 130.19,-84.8"/>
<text text-anchor="middle" x="77" y="-62.6" font-family="Times,serif" font-size="14.00">CooperatorPage</text>
</g>
<!-- CooperatorPageModule -->
<g id="node2" class="node">
<title>CooperatorPageModule</title>
<polygon fill="#8dd3c7" stroke="black" points="245.74,-149.8 242.74,-153.8 221.74,-153.8 218.74,-149.8 96.26,-149.8 96.26,-113.8 245.74,-113.8 245.74,-149.8"/>
<text text-anchor="middle" x="171" y="-127.6" font-family="Times,serif" font-size="14.00">CooperatorPageModule</text>
</g>
<!-- CooperatorPage&#45;&gt;CooperatorPageModule -->
<g id="edge1" class="edge">
<title>CooperatorPage&#45;&gt;CooperatorPageModule</title>
<path fill="none" stroke="black" d="M113.11,-84.91C113.11,-84.91 113.11,-103.79 113.11,-103.79"/>
<polygon fill="black" stroke="black" points="109.61,-103.79 113.11,-113.79 116.61,-103.79 109.61,-103.79"/>
</g>
<!-- CooperatorPageRoutingModule -->
<g id="node3" class="node">
<title>CooperatorPageRoutingModule</title>
<polygon fill="#8dd3c7" stroke="black" points="348.36,-84.8 345.36,-88.8 324.36,-88.8 321.36,-84.8 153.64,-84.8 153.64,-48.8 348.36,-48.8 348.36,-84.8"/>
<text text-anchor="middle" x="251" y="-62.6" font-family="Times,serif" font-size="14.00">CooperatorPageRoutingModule</text>
</g>
<!-- CooperatorPageRoutingModule&#45;&gt;CooperatorPageModule -->
<g id="edge2" class="edge">
<title>CooperatorPageRoutingModule&#45;&gt;CooperatorPageModule</title>
<path fill="none" stroke="black" d="M199.72,-84.91C199.72,-84.91 199.72,-103.79 199.72,-103.79"/>
<polygon fill="black" stroke="black" points="196.22,-103.79 199.72,-113.79 203.22,-103.79 196.22,-103.79"/>
</g>
</g>
</svg>
