<?xml version="1.0" encoding="UTF-8" standalone="no"?>
<!DOCTYPE svg PUBLIC "-//W3C//DTD SVG 1.1//EN"
 "http://www.w3.org/Graphics/SVG/1.1/DTD/svg11.dtd">
<!-- Generated by graphviz version 2.47.3 (20210619.1520)
 -->
<!-- Title: dependencies Pages: 1 -->
<svg width="907pt" height="174pt"
 viewBox="0.00 0.00 907.00 173.80" xmlns="http://www.w3.org/2000/svg" xmlns:xlink="http://www.w3.org/1999/xlink">
<g id="graph0" class="graph" transform="scale(1 1) rotate(0) translate(4 169.8)">
<title>dependencies</title>
<polygon fill="white" stroke="transparent" points="-4,4 -4,-169.8 903,-169.8 903,4 -4,4"/>
<text text-anchor="middle" x="449.5" y="-8.2" font-family="sans-serif" font-size="14.00">dependencies</text>
<g id="clust1" class="cluster">
<title>cluster_ComponentsModule</title>
<polygon fill="none" stroke="black" stroke-dasharray="1,5" points="8,-32.8 8,-157.8 891,-157.8 891,-32.8 8,-32.8"/>
</g>
<g id="clust7" class="cluster">
<title>cluster_ComponentsModule_imports</title>
<polygon fill="none" stroke="black" points="739,-40.8 739,-92.8 883,-92.8 883,-40.8 739,-40.8"/>
</g>
<g id="clust2" class="cluster">
<title>cluster_ComponentsModule_declarations</title>
<polygon fill="none" stroke="black" points="16,-40.8 16,-92.8 731,-92.8 731,-40.8 16,-40.8"/>
</g>
<!-- AddModalComponent -->
<g id="node1" class="node">
<title>AddModalComponent</title>
<polygon fill="#ffffb3" stroke="black" points="722.99,-84.8 581.01,-84.8 581.01,-48.8 722.99,-48.8 722.99,-84.8"/>
<text text-anchor="middle" x="652" y="-62.6" font-family="Times,serif" font-size="14.00">AddModalComponent</text>
</g>
<!-- ComponentsModule -->
<g id="node5" class="node">
<title>ComponentsModule</title>
<polygon fill="#8dd3c7" stroke="black" points="549.33,-149.8 546.33,-153.8 525.33,-153.8 522.33,-149.8 418.67,-149.8 418.67,-113.8 549.33,-113.8 549.33,-149.8"/>
<text text-anchor="middle" x="484" y="-127.6" font-family="Times,serif" font-size="14.00">ComponentsModule</text>
</g>
<!-- AddModalComponent&#45;&gt;ComponentsModule -->
<g id="edge1" class="edge">
<title>AddModalComponent&#45;&gt;ComponentsModule</title>
<path fill="none" stroke="black" d="M652,-84.82C652,-102.17 652,-125.8 652,-125.8 652,-125.8 559.43,-125.8 559.43,-125.8"/>
<polygon fill="black" stroke="black" points="559.43,-122.3 549.43,-125.8 559.43,-129.3 559.43,-122.3"/>
</g>
<!-- ManageStockComponent -->
<g id="node2" class="node">
<title>ManageStockComponent</title>
<polygon fill="#ffffb3" stroke="black" points="563.31,-84.8 404.69,-84.8 404.69,-48.8 563.31,-48.8 563.31,-84.8"/>
<text text-anchor="middle" x="484" y="-62.6" font-family="Times,serif" font-size="14.00">ManageStockComponent</text>
</g>
<!-- ManageStockComponent&#45;&gt;ComponentsModule -->
<g id="edge2" class="edge">
<title>ManageStockComponent&#45;&gt;ComponentsModule</title>
<path fill="none" stroke="black" d="M484,-84.91C484,-84.91 484,-103.79 484,-103.79"/>
<polygon fill="black" stroke="black" points="480.5,-103.79 484,-113.79 487.5,-103.79 480.5,-103.79"/>
</g>
<!-- ModalManageStockComponent -->
<g id="node3" class="node">
<title>ModalManageStockComponent</title>
<polygon fill="#ffffb3" stroke="black" points="386.36,-84.8 191.64,-84.8 191.64,-48.8 386.36,-48.8 386.36,-84.8"/>
<text text-anchor="middle" x="289" y="-62.6" font-family="Times,serif" font-size="14.00">ModalManageStockComponent</text>
</g>
<!-- ModalManageStockComponent&#45;&gt;ComponentsModule -->
<g id="edge3" class="edge">
<title>ModalManageStockComponent&#45;&gt;ComponentsModule</title>
<path fill="none" stroke="black" d="M289,-84.82C289,-102.17 289,-125.8 289,-125.8 289,-125.8 408.8,-125.8 408.8,-125.8"/>
<polygon fill="black" stroke="black" points="408.8,-129.3 418.8,-125.8 408.8,-122.3 408.8,-129.3"/>
</g>
<!-- VerifiedSvgComponent -->
<g id="node4" class="node">
<title>VerifiedSvgComponent</title>
<polygon fill="#ffffb3" stroke="black" points="173.75,-84.8 24.25,-84.8 24.25,-48.8 173.75,-48.8 173.75,-84.8"/>
<text text-anchor="middle" x="99" y="-62.6" font-family="Times,serif" font-size="14.00">VerifiedSvgComponent</text>
</g>
<!-- VerifiedSvgComponent&#45;&gt;ComponentsModule -->
<g id="edge4" class="edge">
<title>VerifiedSvgComponent&#45;&gt;ComponentsModule</title>
<path fill="none" stroke="black" d="M99,-85.08C99,-106.12 99,-137.8 99,-137.8 99,-137.8 408.69,-137.8 408.69,-137.8"/>
<polygon fill="black" stroke="black" points="408.69,-141.3 418.69,-137.8 408.69,-134.3 408.69,-141.3"/>
</g>
<!-- AppRoutingModule -->
<g id="node6" class="node">
<title>AppRoutingModule</title>
<polygon fill="#8dd3c7" stroke="black" points="875.27,-84.8 872.27,-88.8 851.27,-88.8 848.27,-84.8 746.73,-84.8 746.73,-48.8 875.27,-48.8 875.27,-84.8"/>
<text text-anchor="middle" x="811" y="-62.6" font-family="Times,serif" font-size="14.00">AppRoutingModule</text>
</g>
<!-- AppRoutingModule&#45;&gt;ComponentsModule -->
<g id="edge5" class="edge">
<title>AppRoutingModule&#45;&gt;ComponentsModule</title>
<path fill="none" stroke="black" d="M811,-85.08C811,-106.12 811,-137.8 811,-137.8 811,-137.8 559.39,-137.8 559.39,-137.8"/>
<polygon fill="black" stroke="black" points="559.39,-134.3 549.39,-137.8 559.39,-141.3 559.39,-134.3"/>
</g>
</g>
</svg>
